<svg width="121" height="32" viewBox="0 0 121 32" fill="none" xmlns="http://www.w3.org/2000/svg">
<g id="LOGO" clip-path="url(#clip0_156_51016)">
<path id="Vector" d="M23.1089 19.6452C23.1039 19.5165 23.0841 19.3911 23.0528 19.2673C23.0214 19.1436 22.9785 19.0231 22.924 18.9076C22.8696 18.7921 22.8036 18.6832 22.7277 18.5809C22.6518 18.4769 22.566 18.3829 22.4703 18.2987C22.3762 18.2129 22.2739 18.137 22.1633 18.071C22.0544 18.0066 21.9389 17.9522 21.8184 17.9109C21.698 17.868 21.5742 17.8383 21.4471 17.8202C21.3217 17.802 21.1947 17.7971 21.0676 17.8037C20.9389 17.8103 20.8135 17.8301 20.6897 17.8631C20.5676 17.8944 20.4471 17.939 20.3333 17.9951C20.2178 18.0512 20.1089 18.1172 20.0082 18.1947C19.9059 18.2723 19.8135 18.3581 19.7277 18.4538C19.6435 18.5495 19.5693 18.6535 19.5049 18.764C19.4405 18.8746 19.3877 18.9901 19.3465 19.1106C19.3052 19.2327 19.2755 19.3565 19.259 19.4835C19.2425 19.6106 19.2376 19.7376 19.2458 19.8647C19.2541 20.0066 19.2574 20.1502 19.2574 20.2938C19.2574 20.5924 19.2409 20.8878 19.2062 21.1848C19.1716 21.4802 19.1188 20.7723 19.0495 21.0627C18.9802 21.3515 18.8943 21.637 18.792 21.9159C18.6881 22.1947 18.5693 22.467 18.4356 22.7327C18.3003 22.9984 18.1501 23.2542 17.9851 23.5017C17.8201 23.7492 17.6402 23.9868 17.4471 24.2129C17.2541 24.439 17.0495 24.6535 16.83 24.8548C16.6122 25.0578 16.3828 25.2459 16.1419 25.4208C15.9026 25.5957 15.6518 25.7558 15.3927 25.901C15.1336 26.0462 14.8663 26.1749 14.5924 26.2888C14.3168 26.4027 14.0363 26.4984 13.7508 26.5792C13.4653 26.6601 13.1749 26.7228 12.8811 26.769C12.5874 26.8152 12.292 26.8433 11.995 26.8548C11.6996 26.8664 11.4026 26.8598 11.1072 26.835C10.8102 26.8119 10.5165 26.769 10.226 26.7112C9.93394 26.6518 9.64682 26.5759 9.36464 26.4835C9.08246 26.3911 8.80688 26.2806 8.5379 26.1551C8.26893 26.0297 8.00655 25.8895 7.75408 25.7327C7.5016 25.5759 7.25903 25.406 7.02635 25.2211C6.79368 25.0347 6.57256 24.8367 6.36299 24.6254C6.15342 24.4142 5.9587 24.1914 5.77553 23.9571C5.59236 23.7228 5.42404 23.4786 5.26893 23.2228C5.11546 22.9687 5.12376 22.7706 5 22.5C4.87624 22.2277 4.80787 22.0231 4.71712 21.7393C4.62636 21.4555 4.55611 21.2921 4.5 21C4.42261 20.5971 4.27388 20.2617 4.27388 20C4.27388 19.918 4.44612 19.2841 4.4686 19.2063C4.55111 18.9192 4.88449 18.2756 5 18C5.09919 17.7634 5.15837 17.5644 5.15837 17.5644C5.15837 17.5644 5.46695 17.0561 5.64352 16.8169C5.81843 16.5776 6.0082 16.3482 6.21117 16.132C6.41414 15.9142 6.63031 15.7096 6.85639 15.5182C7.08411 15.3251 7.32173 15.1485 7.57091 14.9835C7.81843 14.8202 8.07586 14.6716 8.34154 14.538C8.60721 14.406 8.87949 14.2888 9.15837 14.1881C9.43725 14.0858 9.72272 14.0017 10.0115 13.9357C10.3019 13.868 10.594 13.8185 10.8894 13.7855C11.1848 13.7525 11.4801 13.7376 11.7772 13.7393C12.0742 13.7426 12.3696 13.7624 12.665 13.8004C12.9603 13.8367 13.2508 13.8911 13.5396 13.9637C13.8283 14.0363 14.1105 14.1238 14.3877 14.2294C14.6666 14.335 14.9372 14.4571 15.1996 14.5941C15.4636 14.7327 15.7178 14.8845 15.9636 15.0528C16.2095 15.2211 16.4438 15.4027 16.6683 15.5974C16.8927 15.7938 17.1039 16.0017 17.3036 16.2211C17.5033 16.4423 17.6881 16.6749 17.8613 16.9175C17.9339 17.0198 18.0181 17.1155 18.1105 17.203C18.2029 17.2905 18.3019 16.368 18.4108 16.4357C18.5181 16.5033 18.6303 16.5594 18.7491 16.6056C18.8679 16.6502 18.9901 16.6832 19.1155 16.7046C19.2409 16.7261 19.3663 16.7343 19.4934 16.731C19.6204 16.7277 19.7458 16.7112 19.8696 16.6815C19.9934 16.6535 20.1138 16.6139 20.2293 16.5611C20.3448 16.5099 20.4554 16.4456 20.5594 16.373C20.6617 16.2987 20.7574 16.2145 20.8448 16.1221C20.9323 16.0297 21.0099 15.9291 21.0775 15.8218C21.1435 15.7145 21.2013 15.6007 21.2458 15.4819C21.2904 15.3631 21.3234 15.2409 21.3448 15.1155C21.3663 14.9885 21.3745 14.8631 21.3712 14.736C21.3679 14.6089 21.3514 14.4819 21.3234 14.3581C21.2953 14.2343 21.2541 14.1139 21.2029 13.9984C21.1501 13.8812 21.0874 13.7723 21.0148 13.6683C20.6089 13.0974 20.1551 12.5677 19.6518 12.0809C19.1501 11.5941 18.6072 11.1568 18.0247 10.769C17.4422 10.3812 16.8283 10.0495 16.1864 9.7756C15.5429 9.50002 14.8795 9.2855 14.198 9.13369L17.3432 2.73599C17.3927 2.63533 17.4323 2.52972 17.462 2.41916C17.4917 2.31025 17.5099 2.19969 17.5165 2.08583C17.5247 1.97362 17.5214 1.85976 17.5066 1.74755C17.4917 1.63533 17.4653 1.52642 17.429 1.41916C17.3927 1.3119 17.3465 1.20794 17.2904 1.11058C17.2343 1.01157 17.1683 0.920813 17.094 0.835004C17.0198 0.750846 16.9372 0.673288 16.8481 0.603981C16.7574 0.534674 16.6633 0.475269 16.561 0.425763C16.4603 0.374609 16.3547 0.335005 16.2458 0.306952C16.1369 0.277249 16.0247 0.259097 15.9125 0.250846C15.8003 0.244245 15.6881 0.247546 15.5759 0.262397C15.4636 0.277249 15.3547 0.302001 15.2475 0.338305C15.1402 0.374609 15.0379 0.420813 14.9389 0.478569C14.8415 0.534675 14.7508 0.600681 14.665 0.674938C14.5808 0.749196 14.5033 0.831704 14.4339 0.922463C14.3663 1.01157 14.3069 1.10728 14.2557 1.20959L9.74583 9.03137L9.67652 9.04458L11.2211 2.99507C11.2574 2.88616 11.2821 2.77395 11.2953 2.65844C11.3102 2.54292 11.3118 2.42741 11.3019 2.3119C11.292 2.19639 11.2722 2.08418 11.2392 1.97197C11.2079 1.86141 11.165 1.75415 11.1105 1.65184C11.0561 1.54953 10.9934 1.45217 10.9207 1.36306C10.8465 1.27395 10.7656 1.19144 10.6765 1.11883C10.5874 1.04458 10.4917 0.981869 10.3894 0.927414C10.2871 0.872958 10.1798 0.830054 10.0693 0.798701C9.9587 0.765697 9.84484 0.744246 9.72932 0.734344C9.61381 0.726094 9.49995 0.727744 9.38444 0.740945C9.27058 0.754146 9.15837 0.780549 9.04781 0.816853C8.9389 0.853156 8.83329 0.899361 8.73263 0.957117C8.63196 1.01487 8.53956 1.08088 8.4521 1.15844C8.36629 1.23434 8.28708 1.3185 8.21777 1.41091C8.14682 1.50332 8.08741 1.60233 8.0379 1.70629C7.98675 1.81025 7.94715 1.91916 7.91909 2.03137L5.04946 10.8284V4.8317C5.05441 4.71619 5.04946 4.60233 5.03295 4.48847C5.01645 4.37461 4.9884 4.26405 4.95045 4.15514C4.91084 4.04788 4.86299 3.94392 4.80358 3.84656C4.74417 3.74755 4.67487 3.65679 4.59731 3.57098C4.51975 3.48682 4.43559 3.41091 4.34318 3.34326C4.24913 3.2756 4.15177 3.21784 4.04615 3.16999C3.94219 3.12213 3.83493 3.08583 3.72272 3.05943C3.61216 3.03302 3.4983 3.01817 3.38444 3.01487C3.26893 3.01157 3.15507 3.01817 3.04285 3.03797C2.92899 3.05778 2.82008 3.08748 2.71282 3.12873C2.60556 3.16999 2.50325 3.22114 2.40754 3.28385C2.31018 3.34491 2.22107 3.41586 2.13856 3.49507C2.05606 3.57593 1.9818 3.66339 1.91579 3.75745C1.85144 3.85151 1.79533 3.95217 1.75078 4.05778C1.70457 4.16339 1.67157 4.2723 1.64681 4.38451C1.62371 4.49672 1.61216 4.61058 1.61051 4.72609L1.27388 15.6799C1.10391 16.0677 0.955396 16.4654 0.828333 16.8697C0.70127 17.274 0.59731 17.6848 0.516452 18.1023C0.435594 18.5182 0.377838 18.9373 0.343184 19.3614C0.308531 19.7839 0.29698 20.2063 0.308531 20.6304C0.321732 21.0545 0.358036 21.4769 0.417442 21.8977C0.476848 22.3169 0.557706 22.7327 0.663316 23.1436C0.768927 23.5545 0.89764 23.9588 1.0478 24.3548C1.19797 24.7525 1.36959 25.1386 1.56266 25.5165C1.75573 25.8944 1.9686 26.2607 2.20292 26.6139C2.43724 26.967 2.68972 27.307 2.96035 27.632C3.23262 27.9588 3.5214 28.2674 3.82668 28.5611C4.13196 28.8548 4.45375 29.1304 4.79038 29.3878C5.12536 29.6452 5.4752 29.8829 5.83823 30.1007C6.20127 30.3202 6.57586 30.5182 6.96035 30.6947C7.34484 30.8713 7.73757 31.0264 8.14021 31.1584C8.54121 31.2921 8.95045 31.4027 9.36464 31.4901C9.77883 31.5776 10.1963 31.6419 10.6171 31.6815C11.0379 31.7228 11.4603 31.7409 11.8844 31.7343C12.3069 31.7277 12.7293 31.698 13.1485 31.6452C13.5693 31.5908 13.9834 31.5149 14.396 31.4159C14.8069 31.3152 15.2112 31.1931 15.6089 31.0479C16.0082 30.9043 16.396 30.7376 16.7755 30.5495C17.1551 30.3614 17.5231 30.1518 17.8795 29.9241C18.2343 29.6947 18.5775 29.4456 18.9059 29.1782C19.2343 28.9109 19.5478 28.6271 19.8448 28.3235C20.1419 28.0215 20.4207 27.7046 20.6831 27.3713C20.9455 27.038 21.1864 26.6898 21.4108 26.3301C21.6336 25.9687 21.8366 25.5974 22.0181 25.2145C22.1996 24.8317 22.3613 24.439 22.4983 24.038C22.6369 23.637 22.7541 23.2294 22.8465 22.8169C22.9405 22.4027 23.0099 21.9852 23.0577 21.5627C23.1039 21.1419 23.127 20.7178 23.127 20.2938C23.127 20.0759 23.1221 19.8598 23.1089 19.6452Z" fill="#6941C6"/>
<path id="Vector_2" d="M30.0171 28.8748V9.5415H33.5484V17.3567L40.7036 9.5415H45.0666L37.9445 17.2181L45.2646 28.8748H40.928L35.4032 19.9243L33.5484 21.9441V28.8748H30.0171Z" fill="black"/>
<path id="Vector_3" d="M51.9692 28.8748V9.5415H55.5006L64.5897 23.1587V9.5415H68.1277V28.8748H64.5897L55.5006 15.2841V28.8748H51.9692Z" fill="black"/>
<path id="Vector_4" d="M76.1575 28.8748V9.5415H79.6888V28.8748H76.1575Z" fill="black"/>
<path id="Vector_5" d="M87.1475 28.8748V26.1686L96.0386 12.492H87.2267V9.5415H100.131V12.2478L91.1805 25.9177H100.184V28.8748H87.1475Z" fill="black"/>
<g id="Group">
<g id="Group_2">
<g id="Group_3">
<path id="Vector_6" d="M107.637 28.8748V9.54149H120.258V12.3864H111.169V17.6867H119.433V20.4524H111.169V26.0299H120.258V28.8748H107.637Z" fill="black"/>
</g>
</g>
</g>
</g>
<defs>
<clipPath id="clip0_156_51016">
<rect width="120.396" height="32" fill="white"/>
</clipPath>
</defs>
</svg>
