<?xml version="1.0" standalone="no"?>
<!DOCTYPE svg PUBLIC "-//W3C//DTD SVG 20010904//EN"
 "http://www.w3.org/TR/2001/REC-SVG-20010904/DTD/svg10.dtd">
<svg version="1.0" xmlns="http://www.w3.org/2000/svg"
 width="1000.000000pt" height="1000.000000pt" viewBox="0 0 1000.000000 1000.000000"
 preserveAspectRatio="xMidYMid meet">
<metadata>
Created by potrace 1.14, written by Peter Selinger 2001-2017
</metadata>
<g transform="translate(0.000000,1000.000000) scale(0.100000,-0.100000)"
fill="#000000" stroke="none">
<path d="M5560 8940 c0 -15 7 -20 25 -20 18 0 25 5 25 20 0 15 -7 20 -25 20
-18 0 -25 -5 -25 -20z"/>
<path d="M5210 8790 c0 -13 7 -20 20 -20 13 0 20 7 20 20 0 13 -7 20 -20 20
-13 0 -20 -7 -20 -20z"/>
<path d="M5160 8735 c0 -18 5 -25 20 -25 15 0 20 7 20 25 0 18 -5 25 -20 25
-15 0 -20 -7 -20 -25z"/>
<path d="M5107 8663 c-4 -3 -7 -28 -7 -55 0 -45 -2 -48 -25 -48 l-25 0 2 -177
c3 -176 3 -178 26 -181 19 -3 22 -9 22 -53 l0 -49 -100 0 -100 0 0 -25 c0 -23
-3 -25 -50 -25 -47 0 -50 -2 -50 -25 0 -20 -5 -25 -25 -25 -20 0 -25 -5 -25
-25 0 -20 5 -25 25 -25 20 0 25 5 25 25 0 20 5 25 25 25 20 0 25 -5 25 -25 0
-20 5 -25 25 -25 20 0 25 -5 25 -25 0 -20 5 -25 25 -25 20 0 25 -5 25 -25 0
-20 5 -25 25 -25 24 0 25 -3 25 -55 0 -52 1 -55 25 -55 23 0 25 -4 25 -45 0
-41 2 -45 25 -45 20 0 25 -5 25 -25 0 -20 5 -25 24 -25 19 0 25 -6 28 -27 2
-20 9 -29 25 -31 14 -2 23 -11 25 -25 2 -14 11 -23 25 -25 17 -3 23 -12 28
-53 5 -38 11 -49 25 -49 14 0 20 -11 25 -50 6 -44 10 -50 31 -50 19 0 24 -5
24 -24 0 -18 6 -25 23 -28 19 -3 22 -10 25 -50 3 -39 6 -47 25 -50 19 -3 22
-10 25 -50 3 -39 6 -47 25 -50 16 -2 23 -11 25 -30 3 -22 9 -28 28 -28 22 0
24 -4 24 -50 0 -47 2 -50 25 -50 20 0 25 -5 25 -25 0 -20 5 -25 25 -25 23 0
25 -3 25 -50 l0 -50 -50 0 c-47 0 -50 2 -50 25 0 20 -5 25 -25 25 -20 0 -25 5
-25 25 0 20 -5 25 -25 25 -20 0 -25 5 -25 25 0 20 -5 25 -25 25 -20 0 -25 5
-25 25 0 20 -5 25 -25 25 -20 0 -25 5 -25 25 0 20 -5 25 -24 25 -19 0 -25 6
-28 28 -2 19 -9 28 -25 30 -14 2 -23 11 -25 25 -2 14 -11 23 -25 25 -17 3 -23
10 -23 28 0 19 -5 24 -24 24 -18 0 -25 6 -28 23 -2 14 -11 23 -25 25 -14 2
-23 11 -25 25 -2 16 -11 23 -30 25 -22 3 -28 9 -28 28 0 24 -1 24 -100 24
l-100 0 0 50 c0 46 -2 50 -24 50 -23 0 -25 4 -28 53 -3 45 -6 52 -25 55 -19 3
-22 11 -25 50 -3 39 -7 48 -24 50 -17 2 -23 12 -29 48 -5 35 -10 44 -26 44
-17 0 -19 8 -19 80 0 79 0 80 25 80 20 0 25 5 25 25 0 18 5 25 20 25 15 0 20
7 20 25 0 18 -5 25 -20 25 -15 0 -20 -7 -20 -25 0 -20 -5 -25 -25 -25 -20 0
-25 -5 -25 -25 0 -20 -5 -25 -24 -25 -23 0 -25 -5 -31 -62 -3 -35 -5 -126 -3
-203 3 -136 4 -140 26 -143 19 -3 22 -9 22 -53 0 -45 2 -49 24 -49 21 0 25 -6
31 -50 6 -44 10 -50 31 -50 19 0 24 -5 24 -25 0 -20 5 -25 25 -25 20 0 25 -5
25 -24 0 -20 6 -25 45 -30 36 -6 45 -11 45 -27 0 -14 7 -19 30 -19 25 0 30 -4
30 -24 0 -23 4 -25 53 -28 45 -3 52 -6 55 -25 3 -18 12 -23 47 -28 42 -7 43
-8 50 -50 5 -35 10 -44 28 -47 16 -2 23 -11 25 -30 3 -22 9 -28 28 -28 19 0
24 -5 24 -25 0 -18 5 -25 19 -25 15 0 20 -10 26 -50 6 -44 10 -50 31 -50 19 0
24 -5 24 -25 0 -20 5 -25 25 -25 21 0 25 -5 25 -30 0 -23 5 -30 19 -30 16 0
21 -9 27 -45 5 -39 10 -45 30 -45 19 0 24 -5 24 -25 0 -20 5 -25 25 -25 20 0
25 -5 25 -25 0 -20 5 -25 25 -25 21 0 25 -5 25 -30 0 -25 4 -30 25 -30 20 0
25 -5 25 -25 0 -20 5 -25 25 -25 23 0 25 -3 25 -50 0 -46 2 -50 24 -50 21 0
25 -6 31 -50 6 -40 11 -50 26 -50 15 0 19 -7 19 -34 0 -75 12 -126 30 -126 20
0 30 -43 30 -137 l0 -63 45 0 c41 0 45 -2 45 -25 0 -23 3 -25 49 -25 44 0 50
-3 53 -22 3 -20 10 -23 56 -26 48 -3 52 -5 52 -28 0 -22 4 -24 50 -24 47 0 50
-2 50 -25 0 -23 4 -25 44 -25 70 0 106 -10 106 -30 0 -14 12 -19 55 -25 45 -5
55 -10 55 -26 0 -16 7 -19 50 -19 47 0 50 -2 50 -25 0 -23 3 -25 50 -25 47 0
50 2 50 25 0 21 -5 25 -30 25 -23 0 -30 5 -30 19 0 16 -9 21 -45 27 -39 5 -45
10 -45 30 0 19 -5 24 -24 24 -21 0 -25 6 -31 50 -5 39 -11 50 -25 50 -13 0
-20 9 -22 28 -2 19 -9 28 -25 30 -18 3 -23 10 -23 31 0 16 -3 49 -6 75 -5 36
-11 46 -25 46 -14 0 -19 7 -19 29 0 70 -13 121 -30 121 -20 0 -30 43 -30 138
0 54 -2 62 -19 62 -20 0 -31 39 -31 112 0 30 -4 37 -22 40 -21 3 -23 9 -26 81
-3 74 -4 77 -27 77 -25 0 -25 0 -25 100 l0 100 -25 0 c-20 0 -25 5 -25 25 0
20 -5 25 -24 25 -19 0 -25 6 -28 28 -2 19 -9 28 -24 30 -17 2 -23 12 -29 48
-5 34 -10 44 -25 44 -13 0 -20 8 -22 28 -2 19 -9 28 -25 30 -18 3 -23 12 -29
47 -5 35 -11 45 -28 47 -15 2 -22 11 -24 31 -3 21 -9 27 -28 27 -19 0 -24 5
-24 25 0 18 -5 25 -19 25 -15 0 -20 10 -26 50 -6 44 -10 50 -31 50 -19 0 -24
5 -24 25 0 20 -5 25 -25 25 -23 0 -25 3 -25 50 0 47 -2 50 -25 50 -21 0 -25 5
-25 30 0 25 -4 30 -25 30 -23 0 -25 3 -25 50 0 47 -2 50 -25 50 -23 0 -25 3
-25 50 0 46 -2 50 -24 50 -23 0 -25 5 -28 48 -3 40 -6 47 -25 50 -17 3 -23 10
-23 28 0 19 -5 24 -24 24 -21 0 -25 6 -31 50 -6 40 -11 50 -26 50 -14 0 -19 7
-19 25 0 20 -5 25 -24 25 -21 0 -25 6 -31 50 -5 39 -11 50 -25 50 -15 0 -20
11 -25 55 -6 43 -11 55 -25 55 -22 0 -30 43 -30 163 0 80 -2 87 -20 87 -15 0
-20 7 -20 25 0 18 5 25 20 25 19 0 20 7 20 105 0 95 -2 105 -18 105 -10 0 -22
-3 -25 -7z m703 -2113 c0 -13 -7 -20 -20 -20 -13 0 -20 7 -20 20 0 13 7 20 20
20 13 0 20 -7 20 -20z"/>
<path d="M6020 8535 c0 -18 5 -25 20 -25 15 0 20 7 20 25 0 18 -5 25 -20 25
-15 0 -20 -7 -20 -25z"/>
<path d="M6120 8380 c0 -15 7 -20 25 -20 18 0 25 5 25 20 0 15 -7 20 -25 20
-18 0 -25 -5 -25 -20z"/>
<path d="M6280 8180 c0 -13 7 -20 20 -20 13 0 20 7 20 20 0 13 -7 20 -20 20
-13 0 -20 -7 -20 -20z"/>
<path d="M6430 7925 c0 -18 5 -25 20 -25 15 0 20 7 20 25 0 18 -5 25 -20 25
-15 0 -20 -7 -20 -25z"/>
<path d="M6580 7670 c0 -13 7 -20 20 -20 13 0 20 7 20 20 0 13 -7 20 -20 20
-13 0 -20 -7 -20 -20z"/>
<path d="M6630 7570 c0 -13 7 -20 20 -20 13 0 20 7 20 20 0 13 -7 20 -20 20
-13 0 -20 -7 -20 -20z"/>
<path d="M6680 7520 c0 -15 7 -20 25 -20 18 0 25 5 25 20 0 15 -7 20 -25 20
-18 0 -25 -5 -25 -20z"/>
<path d="M6790 7365 c0 -18 5 -25 20 -25 15 0 20 7 20 25 0 18 -5 25 -20 25
-15 0 -20 -7 -20 -25z"/>
<path d="M6890 7210 c0 -13 7 -20 20 -20 13 0 20 7 20 20 0 13 -7 20 -20 20
-13 0 -20 -7 -20 -20z"/>
<path d="M6990 7060 c0 -13 7 -20 20 -20 13 0 20 7 20 20 0 13 -7 20 -20 20
-13 0 -20 -7 -20 -20z"/>
<path d="M7040 6955 c0 -18 5 -25 20 -25 15 0 20 7 20 25 0 18 -5 25 -20 25
-15 0 -20 -7 -20 -25z"/>
<path d="M7190 6445 c0 -68 2 -75 20 -75 18 0 20 7 20 75 0 68 -2 75 -20 75
-18 0 -20 -7 -20 -75z"/>
<path d="M7240 6275 c0 -52 1 -55 25 -55 24 0 25 3 25 55 0 52 -1 55 -25 55
-24 0 -25 -3 -25 -55z"/>
<path d="M7290 6145 c0 -20 5 -25 25 -25 20 0 25 5 25 25 0 20 -5 25 -25 25
-20 0 -25 -5 -25 -25z"/>
<path d="M7340 6040 c0 -15 7 -20 25 -20 18 0 25 5 25 20 0 15 -7 20 -25 20
-18 0 -25 -5 -25 -20z"/>
<path d="M7390 5890 c0 -15 7 -20 25 -20 18 0 25 5 25 20 0 15 -7 20 -25 20
-18 0 -25 -5 -25 -20z"/>
<path d="M7450 5735 c0 -18 5 -25 20 -25 15 0 20 7 20 25 0 18 -5 25 -20 25
-15 0 -20 -7 -20 -25z"/>
<path d="M7500 5635 c0 -18 5 -25 20 -25 15 0 20 7 20 25 0 18 -5 25 -20 25
-15 0 -20 -7 -20 -25z"/>
<path d="M2767 5403 c-9 -8 -9 -71 -1 -112 4 -21 12 -31 25 -31 12 0 19 -9 21
-27 2 -20 9 -29 25 -31 14 -2 23 -11 25 -25 2 -14 11 -23 25 -25 14 -2 23 -11
25 -25 2 -16 11 -23 31 -25 21 -3 27 -9 27 -28 0 -22 4 -24 50 -24 47 0 50 -2
50 -25 l0 -25 200 0 200 0 0 25 0 25 119 0 c146 0 181 6 181 31 0 16 8 19 55
19 47 0 55 -3 55 -19 0 -26 40 -31 255 -31 215 0 255 5 255 31 0 17 8 19 75
19 73 0 75 -1 75 -25 0 -20 5 -25 25 -25 20 0 25 -5 25 -25 0 -21 5 -25 30
-25 25 0 30 -4 30 -25 0 -20 5 -25 25 -25 20 0 25 -5 25 -25 0 -23 4 -25 45
-25 41 0 45 -2 45 -24 0 -19 6 -25 28 -28 19 -2 28 -9 30 -25 3 -17 10 -23 28
-23 19 0 24 -5 24 -24 0 -21 6 -25 50 -31 39 -5 50 -11 50 -25 0 -14 11 -20
49 -25 41 -5 50 -11 53 -28 3 -19 11 -22 51 -25 38 -3 47 -7 47 -21 0 -15 11
-20 55 -26 44 -5 55 -10 55 -24 0 -20 35 -31 101 -31 31 0 38 -4 41 -22 3 -20
10 -23 56 -26 l52 -3 0 -50 c0 -46 -2 -49 -25 -49 -24 0 -25 -2 -25 -69 0 -96
-8 -131 -31 -131 -16 0 -19 -8 -19 -55 0 -52 -1 -55 -25 -55 -23 0 -25 -3 -25
-50 0 -46 -2 -50 -24 -50 -21 0 -25 -6 -31 -50 -6 -44 -10 -50 -31 -50 -19 0
-24 -5 -24 -25 0 -23 -4 -25 -45 -25 -41 0 -45 -2 -45 -25 0 -21 -5 -25 -30
-25 -25 0 -30 -4 -30 -24 0 -23 -5 -25 -47 -28 -40 -3 -48 -6 -51 -25 -3 -17
-12 -23 -53 -28 -38 -5 -49 -11 -49 -25 0 -14 -11 -20 -50 -25 -39 -5 -50 -11
-50 -25 0 -14 -11 -20 -49 -25 -41 -5 -50 -11 -53 -28 -3 -19 -10 -22 -55 -25
-49 -3 -53 -5 -53 -28 0 -22 -4 -24 -50 -24 -42 0 -50 -3 -50 -19 0 -22 -40
-31 -137 -31 -60 0 -63 -1 -63 -25 0 -25 -1 -25 -80 -25 -79 0 -80 0 -80 -25
0 -25 0 -25 93 -25 127 0 167 8 167 31 0 16 8 19 44 19 71 0 106 10 106 31 0
15 9 19 53 21 45 3 52 6 55 26 3 18 10 22 40 22 71 0 112 11 112 30 0 14 11
20 50 25 39 5 50 11 50 25 0 19 41 30 113 30 30 0 37 4 37 19 0 15 10 20 50
26 44 6 50 10 50 31 0 20 5 24 30 24 25 0 30 4 30 25 0 23 4 25 45 25 41 0 45
2 45 25 0 21 5 25 30 25 25 0 30 4 30 25 0 20 5 25 25 25 20 0 25 5 25 25 0
18 5 25 19 25 15 0 20 10 26 50 6 44 10 50 31 50 23 0 24 2 24 75 0 73 1 75
25 75 23 0 25 3 25 49 l0 49 50 7 c39 5 50 11 50 25 0 19 41 30 118 30 38 0
42 2 42 25 0 18 5 25 20 25 15 0 20 7 20 25 0 20 -5 25 -25 25 -20 0 -25 5
-25 25 0 20 -5 25 -25 25 -20 0 -25 5 -25 25 0 23 -3 25 -50 25 -47 0 -50 2
-50 25 0 22 -4 25 -37 25 -72 0 -113 11 -113 30 0 14 -12 19 -55 25 -45 5 -55
10 -55 26 0 15 -7 19 -32 19 -67 0 -108 12 -108 30 0 14 -11 20 -49 25 -41 5
-50 11 -53 28 -2 16 -11 23 -30 25 -20 2 -28 9 -28 22 0 15 -10 20 -44 25 -36
6 -46 12 -48 29 -2 15 -11 22 -30 24 -22 3 -28 9 -28 28 0 22 -4 24 -50 24
-47 0 -50 2 -50 25 0 20 -5 25 -25 25 -20 0 -25 5 -25 25 0 21 -5 25 -30 25
-25 0 -30 4 -30 24 0 20 -6 25 -45 30 -35 6 -45 11 -45 26 0 13 -8 20 -27 22
-20 2 -29 9 -31 26 -3 18 -10 22 -40 22 -73 0 -112 11 -112 31 0 18 -16 19
-405 19 -389 0 -405 -1 -405 -19 0 -23 -40 -31 -167 -31 -86 0 -93 -1 -93 -20
0 -19 -7 -20 -100 -20 -93 0 -100 1 -100 20 0 18 -7 20 -62 20 -97 0 -138 9
-138 31 0 12 -9 19 -27 21 -20 2 -29 9 -31 24 -2 17 -12 23 -47 28 -35 6 -44
11 -47 29 -2 14 -11 23 -25 25 -19 3 -24 12 -29 53 -5 37 -11 49 -24 49 -9 0
-20 -3 -23 -7z"/>
<path d="M6730 5330 c0 -17 7 -20 50 -20 43 0 50 3 50 20 0 17 -7 20 -50 20
-43 0 -50 -3 -50 -20z"/>
<path d="M6880 5280 c0 -17 7 -20 49 -20 47 0 50 -2 53 -27 3 -26 7 -28 50
-31 39 -3 47 -6 50 -25 3 -20 9 -22 81 -25 69 -3 77 -5 77 -22 0 -17 7 -20 50
-20 43 0 50 3 50 20 0 15 -7 20 -25 20 -20 0 -25 5 -25 25 0 22 -4 25 -37 25
-71 0 -113 11 -113 30 0 18 -51 30 -126 30 -27 0 -34 4 -34 20 0 17 -7 20 -50
20 -43 0 -50 -3 -50 -20z"/>
<path d="M7700 5175 c0 -18 5 -25 20 -25 15 0 20 7 20 25 0 18 -5 25 -20 25
-15 0 -20 -7 -20 -25z"/>
<path d="M2160 4870 c0 -13 7 -20 20 -20 13 0 20 7 20 20 0 13 -7 20 -20 20
-13 0 -20 -7 -20 -20z"/>
<path d="M2100 4820 c0 -15 7 -20 25 -20 18 0 25 5 25 20 0 15 -7 20 -25 20
-18 0 -25 -5 -25 -20z"/>
<path d="M7850 4820 c0 -15 7 -20 25 -20 18 0 25 5 25 20 0 15 -7 20 -25 20
-18 0 -25 -5 -25 -20z"/>
<path d="M3120 4770 c0 -13 7 -20 20 -20 13 0 20 7 20 20 0 13 -7 20 -20 20
-13 0 -20 -7 -20 -20z"/>
<path d="M2050 4620 l0 -130 25 0 c23 0 25 -3 25 -50 0 -47 2 -50 25 -50 23 0
25 -3 25 -50 0 -47 2 -50 25 -50 24 0 25 -2 25 -67 0 -103 9 -143 31 -143 17
0 19 -9 19 -87 0 -49 3 -139 7 -200 5 -101 8 -113 25 -113 15 0 18 -8 18 -59
0 -99 10 -151 30 -151 19 0 30 -42 30 -112 0 -34 3 -38 25 -38 23 0 25 -3 25
-50 0 -47 2 -50 25 -50 20 0 25 -5 25 -25 0 -20 5 -25 25 -25 23 0 25 -3 25
-50 0 -47 2 -50 25 -50 20 0 25 -5 25 -25 0 -20 5 -25 25 -25 23 0 25 -3 25
-50 0 -47 2 -50 25 -50 21 0 25 -5 25 -30 0 -25 4 -30 24 -30 23 0 25 -5 28
-47 3 -41 6 -48 26 -51 16 -3 22 -10 22 -28 0 -19 5 -24 25 -24 23 0 25 -3 25
-50 0 -47 2 -50 25 -50 20 0 25 -5 25 -25 0 -20 5 -25 24 -25 21 0 25 -6 31
-49 5 -41 11 -50 28 -53 16 -2 23 -11 25 -31 2 -19 9 -27 22 -27 12 0 20 -8
22 -22 2 -15 11 -24 25 -26 18 -3 23 -12 29 -47 5 -35 11 -45 28 -47 15 -2 22
-11 24 -30 3 -22 9 -28 28 -28 19 0 24 -5 24 -25 0 -20 5 -25 25 -25 20 0 25
-5 25 -25 0 -20 5 -25 25 -25 20 0 25 -5 25 -25 0 -20 5 -25 24 -25 21 0 24
-6 30 -49 5 -41 10 -50 29 -53 14 -2 23 -11 25 -26 2 -14 10 -22 23 -22 14 0
19 -7 19 -25 0 -20 5 -25 25 -25 20 0 25 -5 25 -25 0 -20 5 -25 24 -25 19 0
25 -6 28 -27 2 -20 9 -29 25 -31 14 -2 23 -11 25 -25 2 -16 11 -23 31 -25 21
-3 27 -9 27 -28 0 -19 5 -24 25 -24 20 0 25 -5 25 -25 0 -23 4 -25 44 -25 39
0 45 -3 48 -23 2 -16 11 -23 31 -25 21 -3 27 -9 27 -28 0 -19 5 -24 25 -24 20
0 25 -5 25 -25 0 -20 5 -25 25 -25 20 0 25 -5 25 -24 0 -19 6 -25 28 -28 19
-2 28 -9 30 -25 3 -19 11 -22 50 -25 40 -3 47 -6 50 -25 3 -19 11 -22 50 -25
40 -3 47 -6 50 -25 3 -18 10 -23 31 -23 16 0 49 -3 75 -6 36 -5 46 -11 46 -25
0 -15 8 -19 38 -19 71 0 112 -11 112 -30 0 -16 14 -19 105 -25 91 -6 105 -10
105 -25 0 -23 43 -30 188 -30 105 0 112 -1 112 -20 0 -19 7 -20 230 -20 223 0
230 1 230 20 0 19 7 20 109 20 151 0 201 8 201 31 0 16 8 19 54 19 95 0 146
11 146 30 0 15 14 19 100 25 86 6 100 10 100 25 0 19 41 30 113 30 29 0 37 4
37 19 0 20 40 31 118 31 34 0 42 3 42 19 0 21 34 31 106 31 36 0 44 3 44 19 0
20 39 31 113 31 33 0 37 3 37 25 0 23 3 25 50 25 47 0 50 2 50 25 0 20 5 25
25 25 20 0 25 5 25 24 0 21 6 24 50 30 41 5 50 10 50 26 0 15 7 20 25 20 20 0
25 5 25 24 0 19 6 25 28 28 19 2 28 9 30 25 2 14 11 23 25 25 14 2 23 11 25
25 2 14 11 23 25 25 16 2 23 11 25 31 3 21 9 27 28 27 22 0 24 4 24 50 0 47 2
50 25 50 24 0 25 2 25 75 0 73 1 75 24 75 23 0 25 4 28 53 3 45 6 52 26 55 21
3 22 8 22 98 0 94 0 94 25 94 24 0 25 2 25 69 0 96 8 131 31 131 16 0 19 8 19
43 0 77 11 117 31 117 15 0 19 8 19 38 0 73 11 112 31 112 15 0 19 7 19 34 0
75 12 126 30 126 19 0 30 42 30 113 0 33 3 37 25 37 24 0 25 2 25 75 0 73 1
75 25 75 24 0 25 3 25 55 0 52 1 55 25 55 24 0 25 2 25 70 0 68 1 70 25 70 24
0 25 3 25 55 0 52 1 55 25 55 23 0 25 3 25 50 0 47 2 50 25 50 24 0 25 2 25
75 0 73 1 75 24 75 24 0 24 1 28 113 1 61 1 187 -1 280 l-3 167 -24 0 c-23 0
-24 3 -24 75 0 74 0 75 -26 75 l-26 0 2 -122 c2 -68 2 -147 1 -175 -1 -49 -3
-53 -26 -53 -23 0 -25 -3 -25 -50 0 -46 -2 -50 -25 -50 -23 0 -24 -3 -27 -77
-3 -72 -5 -78 -25 -81 -20 -3 -23 -9 -23 -53 0 -45 -2 -49 -24 -49 -21 0 -25
-6 -31 -50 -5 -39 -11 -50 -25 -50 -14 0 -20 -11 -25 -50 -5 -39 -11 -50 -25
-50 -14 0 -20 -11 -25 -50 -5 -39 -11 -50 -25 -50 -20 0 -30 -51 -30 -151 0
-51 -3 -59 -19 -59 -15 0 -19 -11 -25 -77 -3 -42 -6 -98 -6 -124 0 -42 -3 -48
-22 -51 -21 -3 -23 -9 -26 -75 -2 -63 -5 -73 -21 -73 -20 0 -31 -40 -31 -117
0 -39 -2 -43 -25 -43 -24 0 -25 -2 -25 -75 0 -73 -1 -75 -25 -75 -24 0 -25 -2
-25 -75 0 -73 -1 -75 -25 -75 -23 0 -25 -3 -25 -50 0 -46 -2 -50 -25 -50 -23
0 -24 -3 -27 -77 -3 -71 -5 -78 -25 -81 -17 -3 -23 -12 -28 -53 -6 -39 -11
-49 -26 -49 -14 0 -19 -7 -19 -25 0 -20 -5 -25 -25 -25 -23 0 -25 -3 -25 -50
0 -47 -2 -50 -25 -50 -20 0 -25 -5 -25 -24 0 -19 -6 -25 -27 -28 -22 -2 -29
-9 -31 -30 -2 -20 -9 -28 -23 -28 -12 0 -19 -7 -19 -19 0 -14 -8 -21 -27 -23
-20 -2 -29 -9 -31 -25 -2 -14 -11 -23 -25 -25 -14 -2 -23 -11 -25 -25 -3 -19
-12 -24 -53 -29 -43 -6 -49 -9 -49 -30 0 -19 -5 -24 -25 -24 -18 0 -25 -5 -25
-19 0 -15 -10 -20 -50 -26 -39 -5 -50 -11 -50 -25 0 -15 -11 -20 -55 -25 -43
-6 -55 -11 -55 -25 0 -20 -36 -30 -106 -30 -36 0 -44 -3 -44 -19 0 -21 -34
-31 -106 -31 -40 0 -44 -2 -44 -25 0 -23 -3 -25 -50 -25 -47 0 -50 -2 -50 -25
0 -24 -2 -25 -69 -25 -96 0 -131 -8 -131 -31 0 -17 -9 -19 -92 -19 -128 0
-168 -8 -168 -31 0 -18 -14 -19 -330 -19 -316 0 -330 1 -330 19 0 22 -40 31
-142 31 -60 0 -68 2 -68 19 0 22 -35 31 -126 31 -62 0 -64 1 -64 25 0 24 -3
25 -55 25 -52 0 -55 1 -55 25 0 24 -2 25 -75 25 -73 0 -75 1 -75 25 0 24 -2
25 -75 25 -72 0 -75 1 -75 24 0 21 -6 24 -50 30 -41 5 -50 10 -50 26 0 16 -7
20 -30 20 -25 0 -30 4 -30 25 0 23 -3 25 -50 25 -46 0 -50 2 -50 24 0 21 -6
25 -50 31 -44 6 -50 10 -50 31 0 19 -5 24 -25 24 -20 0 -25 5 -25 25 0 20 -5
25 -25 25 -20 0 -25 5 -25 25 0 20 -5 25 -25 25 -20 0 -25 5 -25 25 0 20 -5
25 -25 25 -20 0 -25 5 -25 25 0 21 -5 25 -30 25 -25 0 -30 4 -30 25 0 18 -5
25 -20 25 -15 0 -20 7 -20 25 0 20 -5 25 -24 25 -19 0 -25 6 -28 28 -2 19 -9
28 -25 30 -15 2 -23 10 -23 22 0 13 -8 20 -27 22 -22 2 -29 9 -31 31 -3 21 -9
27 -28 27 -19 0 -24 5 -24 25 0 20 -5 25 -25 25 -20 0 -25 5 -25 25 0 20 -5
25 -25 25 -20 0 -25 5 -25 25 0 20 -5 25 -25 25 -20 0 -25 5 -25 25 0 20 -5
25 -25 25 -20 0 -25 5 -25 25 0 20 -5 25 -24 25 -21 0 -25 6 -31 50 -6 40 -11
50 -26 50 -14 0 -19 7 -19 25 0 20 -5 25 -24 25 -21 0 -25 6 -31 49 -5 41 -11
50 -28 53 -14 2 -23 11 -25 25 -2 14 -11 23 -25 25 -19 3 -22 10 -25 50 -3 39
-6 47 -25 50 -16 2 -23 11 -25 31 -2 19 -9 27 -22 27 -16 0 -21 10 -26 50 -6
44 -9 50 -30 50 -19 0 -24 5 -24 25 0 20 -5 25 -25 25 -23 0 -25 3 -25 50 0
47 -2 50 -25 50 -20 0 -25 5 -25 25 0 20 -5 25 -24 25 -21 0 -24 6 -30 50 -5
41 -10 50 -26 50 -16 0 -20 7 -20 34 0 75 -12 126 -30 126 -14 0 -18 13 -24
77 -3 42 -6 109 -6 150 0 65 -2 73 -19 73 -17 0 -20 11 -26 105 -6 91 -10 105
-25 105 -15 0 -19 14 -25 100 -6 86 -10 100 -25 100 -19 0 -30 41 -30 113 0
33 -3 37 -25 37 -21 0 -25 5 -25 30 0 23 -5 30 -19 30 -20 0 -31 34 -31 101 0
35 -3 39 -25 39 -24 0 -25 3 -25 55 0 52 -1 55 -25 55 l-25 0 0 -130z"/>
<path d="M3170 4720 c0 -15 7 -20 25 -20 18 0 25 5 25 20 0 15 -7 20 -25 20
-18 0 -25 -5 -25 -20z"/>
<path d="M7900 4715 c0 -20 5 -25 25 -25 20 0 25 5 25 25 0 20 -5 25 -25 25
-20 0 -25 -5 -25 -25z"/>
<path d="M3270 4565 c0 -20 5 -25 25 -25 20 0 25 5 25 25 0 20 -5 25 -25 25
-20 0 -25 -5 -25 -25z"/>
<path d="M3320 4465 c0 -20 5 -25 25 -25 20 0 25 5 25 25 0 20 -5 25 -25 25
-20 0 -25 -5 -25 -25z"/>
<path d="M3380 4365 c0 -18 5 -25 20 -25 15 0 20 7 20 25 0 18 -5 25 -20 25
-15 0 -20 -7 -20 -25z"/>
<path d="M3430 4215 c0 -18 5 -25 20 -25 15 0 20 7 20 25 0 18 -5 25 -20 25
-15 0 -20 -7 -20 -25z"/>
<path d="M3480 4060 c0 -23 4 -30 20 -30 16 0 20 7 20 30 0 23 -4 30 -20 30
-16 0 -20 -7 -20 -30z"/>
<path d="M3530 3905 c0 -18 5 -25 20 -25 15 0 20 7 20 25 0 18 -5 25 -20 25
-15 0 -20 -7 -20 -25z"/>
<path d="M3580 3805 c0 -18 5 -25 20 -25 15 0 20 7 20 25 0 18 -5 25 -20 25
-15 0 -20 -7 -20 -25z"/>
<path d="M3830 3550 c0 -15 7 -20 25 -20 18 0 25 5 25 20 0 15 -7 20 -25 20
-18 0 -25 -5 -25 -20z"/>
<path d="M3890 3500 c0 -13 7 -20 20 -20 13 0 20 7 20 20 0 13 -7 20 -20 20
-13 0 -20 -7 -20 -20z"/>
<path d="M3990 3450 c0 -13 7 -20 20 -20 13 0 20 7 20 20 0 13 -7 20 -20 20
-13 0 -20 -7 -20 -20z"/>
<path d="M4040 3401 c0 -15 10 -21 40 -26 45 -8 60 -2 60 26 0 16 -7 19 -50
19 -43 0 -50 -3 -50 -19z"/>
</g>
</svg>
